<svg width="1397" height="320" viewBox="0 0 1397 320" fill="none" xmlns="http://www.w3.org/2000/svg">
<circle cx="519" cy="160" r="159" fill="#393939" stroke="black" stroke-width="2"/>
<path d="M467.667 214C457.222 214 447.833 211.667 439.5 207C431.278 202.333 424.778 196 420 188C415.333 179.889 413 170.889 413 161C413 151.556 415.278 143 419.833 135.333C424.389 127.556 430.5 121.389 438.167 116.833C445.944 112.278 454.5 110 463.833 110C473.056 110 481.5 112.222 489.167 116.667C496.833 121 502.944 126.889 507.5 134.333C512.056 141.778 514.333 150.222 514.333 159.667V167H449C446.111 167 443.167 166.889 440.167 166.667C437.167 166.444 434.222 166.111 431.333 165.667C432.556 174.556 436.556 182 443.333 188C450.222 194 458.389 197 467.833 197C474.167 197 480.056 195.556 485.5 192.667C490.944 189.778 495.333 185.944 498.667 181.167L503.667 201.667C498.889 205.556 493.389 208.611 487.167 210.833C481.056 212.944 474.556 214 467.667 214ZM430.833 153.5C436.833 152.5 442.889 152 449 152H482.167C484.611 152 487 152.111 489.333 152.333C491.778 152.444 494.222 152.611 496.667 152.833C495.111 145.056 491.222 138.667 485 133.667C478.778 128.556 471.722 126 463.833 126C455.722 126 448.611 128.722 442.5 134.167C436.389 139.5 432.5 145.944 430.833 153.5ZM519.797 212L554.964 159L523.63 112H544.63L554.297 127.333C556.408 130.556 558.464 133.944 560.464 137.5C562.575 140.944 564.408 144.5 565.964 148.167C567.63 144.5 569.464 140.944 571.464 137.5C573.575 134.056 575.686 130.667 577.797 127.333L587.297 112H607.964L576.63 159L611.797 212H590.464L576.797 190.167C574.797 186.944 572.797 183.722 570.797 180.5C568.797 177.167 567.019 173.722 565.464 170.167C563.908 173.722 562.13 177.167 560.13 180.5C558.13 183.722 556.13 186.944 554.13 190.167L540.464 212H519.797Z" fill="#ECECEC"/>
<circle cx="1237" cy="160" r="159" fill="#78B744" stroke="black" stroke-width="2"/>
<path d="M1236.96 272.582C1233.96 272.582 1230.91 271.776 1228.27 270.254L1200.65 253.916C1196.53 251.588 1198.55 250.783 1199.89 250.335C1205.4 248.41 1206.52 248.007 1212.38 244.65C1213.01 244.292 1213.81 244.426 1214.44 244.829L1235.66 257.408C1236.42 257.855 1237.49 257.855 1238.21 257.408L1320.89 209.69C1321.65 209.243 1322.14 208.347 1322.14 207.452V112.018C1322.14 111.078 1321.65 110.227 1320.84 109.735L1238.21 62.0627C1237.45 61.6151 1236.42 61.6151 1235.66 62.0627L1153.07 109.78C1152.26 110.227 1151.77 111.123 1151.77 112.063V207.452C1151.77 208.347 1152.26 209.243 1153.07 209.646L1175.72 222.716C1188.03 228.849 1195.55 221.642 1195.55 214.346V120.165C1195.55 118.822 1196.62 117.792 1197.97 117.792H1208.44C1209.74 117.792 1210.86 118.822 1210.86 120.165V214.39C1210.86 230.774 1201.91 240.174 1186.37 240.174C1181.58 240.174 1177.82 240.174 1167.35 234.981L1145.68 222.493C1140.31 219.404 1137 213.63 1137 207.407V112.018C1137 105.841 1140.31 100.022 1145.68 96.9329L1228.27 49.2158C1233.51 46.2614 1240.45 46.2614 1245.64 49.2158L1328.32 96.9777C1333.69 100.066 1337 105.841 1337 112.063V207.452C1337 213.63 1333.69 219.404 1328.32 222.537L1245.64 270.254C1243 271.776 1240 272.582 1236.96 272.582ZM1303.7 178.535C1303.7 160.675 1291.61 155.93 1266.23 152.573C1240.54 149.171 1237.94 147.425 1237.94 141.427C1237.94 136.458 1240.13 129.834 1259.16 129.834C1276.12 129.834 1282.39 133.504 1284.99 144.963C1285.21 146.038 1286.19 146.843 1287.31 146.843H1298.06C1298.73 146.843 1299.35 146.575 1299.8 146.082C1300.25 145.59 1300.47 144.919 1300.43 144.247C1298.77 124.507 1285.66 115.33 1259.16 115.33C1235.57 115.33 1221.51 125.268 1221.51 141.964C1221.51 160.048 1235.52 165.062 1258.13 167.3C1285.21 169.941 1287.31 173.925 1287.31 179.252C1287.31 188.473 1279.88 192.412 1262.47 192.412C1240.58 192.412 1235.79 186.906 1234.18 176.029C1234 174.865 1233.02 174.014 1231.81 174.014H1221.11C1219.77 174.014 1218.74 175.089 1218.74 176.387C1218.74 190.308 1226.3 206.915 1262.51 206.915C1288.66 206.87 1303.7 196.53 1303.7 178.535Z" fill="#ECECEC"/>
<circle cx="878" cy="160" r="159" fill="#24618E" stroke="black" stroke-width="2"/>
<path d="M956.1 117.594C953.4 116.694 950.7 115.844 948 115.044C948.45 113.194 948.85 111.344 949.25 109.494C955.4 79.6937 951.35 55.7437 937.7 47.8437C924.55 40.2937 903.1 48.1437 881.4 67.0437C879.25 68.8937 877.15 70.8437 875.15 72.7937C873.8 71.4937 872.4 70.1937 871 68.9437C848.25 48.7437 825.45 40.2437 811.8 48.1937C798.7 55.7937 794.8 78.3438 800.3 106.544C800.85 109.344 801.45 112.094 802.15 114.894C798.95 115.794 795.8 116.794 792.85 117.844C766.15 127.094 747 141.694 747 156.794C747 172.394 767.4 188.044 795.15 197.544C797.4 198.294 799.65 199.044 801.95 199.694C801.2 202.694 800.55 205.644 799.95 208.694C794.7 236.444 798.8 258.444 811.9 265.994C825.4 273.794 848.1 265.794 870.2 246.444C871.95 244.894 873.7 243.294 875.45 241.594C877.65 243.744 879.95 245.794 882.25 247.794C903.65 266.194 924.8 273.644 937.85 266.094C951.35 258.294 955.75 234.644 950.05 205.844C949.6 203.644 949.1 201.394 948.55 199.094C950.15 198.644 951.7 198.144 953.25 197.644C982.1 188.094 1003 172.644 1003 156.794C1003 141.644 983.3 126.944 956.1 117.594ZM888.45 75.1437C907.05 58.9437 924.4 52.5937 932.3 57.1437C940.75 61.9937 944 81.5937 938.7 107.344C938.35 109.044 938 110.694 937.55 112.344C926.45 109.844 915.2 108.044 903.9 107.044C897.4 97.7438 890.3 88.8437 882.6 80.4937C884.55 78.6437 886.45 76.8937 888.45 75.1437ZM830.6 182.744C833.15 187.094 835.75 191.444 838.5 195.694C830.7 194.844 822.95 193.594 815.3 191.944C817.5 184.744 820.25 177.294 823.45 169.694C825.75 174.094 828.1 178.444 830.6 182.744ZM815.45 122.594C822.65 120.994 830.3 119.694 838.25 118.694C835.6 122.844 833 127.094 830.55 131.394C828.1 135.644 825.7 139.994 823.45 144.394C820.3 136.944 817.65 129.644 815.45 122.594ZM829.15 157.044C832.45 150.144 836.05 143.394 839.85 136.744C843.65 130.094 847.75 123.644 852.05 117.294C859.55 116.744 867.2 116.444 875 116.444C882.8 116.444 890.5 116.744 897.95 117.294C902.2 123.594 906.25 130.044 910.1 136.644C913.95 143.244 917.55 149.994 920.95 156.844C917.6 163.744 914 170.544 910.15 177.244C906.35 183.894 902.3 190.344 898.05 196.744C890.6 197.294 882.85 197.544 875 197.544C867.15 197.544 859.55 197.294 852.2 196.844C847.85 190.494 843.75 183.994 839.9 177.344C836.05 170.694 832.5 163.944 829.15 157.044ZM919.45 182.644C922 178.244 924.4 173.794 926.75 169.294C929.95 176.544 932.75 183.894 935.2 191.444C927.45 193.194 919.6 194.544 911.7 195.444C914.4 191.244 916.95 186.944 919.45 182.644ZM926.65 144.394C924.3 139.994 921.9 135.594 919.4 131.294C916.95 127.044 914.4 122.844 911.75 118.694C919.8 119.694 927.5 121.044 934.7 122.694C932.4 130.094 929.7 137.294 926.65 144.394ZM875.1 88.1437C880.35 93.8437 885.3 99.8438 889.9 106.044C880 105.594 870.05 105.594 860.15 106.044C865.05 99.5938 870.1 93.5937 875.1 88.1437ZM817.1 57.4937C825.5 52.5937 844.15 59.5937 863.8 76.9937C865.05 78.0937 866.3 79.2937 867.6 80.4937C859.85 88.8437 852.7 97.7438 846.15 107.044C834.85 108.044 823.65 109.794 812.55 112.244C811.9 109.694 811.35 107.094 810.8 104.494C806.1 80.2937 809.2 62.0437 817.1 57.4937ZM804.85 189.294C802.75 188.694 800.7 188.044 798.65 187.344C788 183.994 775.9 178.694 767.15 171.744C762.1 168.244 758.7 162.844 757.75 156.794C757.75 147.644 773.55 135.944 796.35 127.994C799.2 126.994 802.1 126.094 805 125.244C808.4 136.094 812.5 146.744 817.25 157.044C812.45 167.494 808.3 178.294 804.85 189.294ZM863.15 238.294C854.9 245.844 845.35 251.844 834.95 255.944C829.4 258.594 823 258.844 817.3 256.594C809.35 251.994 806.05 234.344 810.55 210.594C811.1 207.794 811.7 204.994 812.4 202.244C823.6 204.644 834.9 206.294 846.35 207.144C852.95 216.494 860.2 225.444 867.95 233.844C866.35 235.394 864.75 236.894 863.15 238.294ZM875.4 226.144C870.3 220.644 865.2 214.544 860.25 207.994C865.05 208.194 870 208.294 875 208.294C880.15 208.294 885.2 208.194 890.2 207.944C885.6 214.294 880.65 220.344 875.4 226.144ZM940.75 241.144C940.3 247.244 937.3 252.944 932.5 256.794C924.55 261.394 907.6 255.394 889.3 239.694C887.2 237.894 885.1 235.944 882.95 233.944C890.6 225.494 897.65 216.544 904.05 207.144C915.5 206.194 926.9 204.444 938.15 201.894C938.65 203.944 939.1 205.994 939.5 207.994C941.95 218.794 942.35 230.044 940.75 241.144ZM949.85 187.394C948.45 187.844 947.05 188.294 945.6 188.694C942.1 177.794 937.8 167.144 932.85 156.794C937.65 146.594 941.7 136.094 945.1 125.344C947.7 126.094 950.2 126.894 952.6 127.694C975.9 135.694 992.25 147.594 992.25 156.694C992.25 166.494 974.8 179.144 949.85 187.394ZM875 179.894C887.65 179.894 897.9 169.644 897.9 156.994C897.9 144.344 887.65 134.094 875 134.094C862.35 134.094 852.1 144.344 852.1 156.994C852.1 169.644 862.35 179.894 875 179.894Z" fill="#62D9FB"/>
<circle cx="160" cy="160" r="159" fill="#ECECEC" stroke="black" stroke-width="2"/>
<path d="M193 148.056C193 204.941 159.5 251.056 159.5 251.056C161 251.056 126 204.941 126 148.056C126 91.1704 161.5 39.0557 159.5 41.0558C159.5 41.0558 193 91.1704 193 148.056Z" fill="#4D7A39"/>
<path d="M163.484 258.056C163.484 279.056 161.917 279.056 159.984 279.056C158.051 279.056 156.484 279.056 156.484 258.056C156.484 246.458 158.051 237.056 159.984 237.056C161.917 237.056 163.484 246.458 163.484 258.056Z" fill="#4D7A39"/>
<path d="M163.484 258.056C163.484 279.056 161.917 279.056 159.984 279.056C158.051 279.056 156.484 279.056 156.484 258.056C156.484 246.458 158.051 237.056 159.984 237.056C161.917 237.056 163.484 246.458 163.484 258.056Z" fill="#4D7A39"/>
</svg>
